<svg width="64" height="64" viewBox="0 0 64 64" fill="none" xmlns="http://www.w3.org/2000/svg">
<path d="M51.9713 62H12.0288C6.50924 62 2 57.4908 2 51.9713V12.0287C2 6.50924 6.50924 2 12.0288 2H51.9713C57.4908 2 62 6.50924 62 12.0287V51.9713C62 57.5154 57.5154 62 51.9713 62Z" stroke="black" stroke-width="4"/>
<path d="M21.1212 42.9034C24.0288 45.811 27.8973 47.4126 32.0123 47.4126C36.1273 47.4126 39.9713 45.811 42.9035 42.9034C45.8111 39.9958 47.4127 36.1272 47.4127 32.0122C47.4127 27.8972 45.8111 24.0287 42.9035 21.1211C39.9959 18.2135 36.1273 16.6118 32.0123 16.6118C27.8973 16.6118 24.0288 18.2135 21.1212 21.1211C18.2136 24.0287 16.6119 27.8972 16.6119 32.0122C16.6119 36.1272 18.2136 39.9958 21.1212 42.9034Z" stroke="black" stroke-width="4"/>
<path d="M50.4146 16.1058C52.0476 16.1058 53.3715 14.7819 53.3715 13.1488C53.3715 11.5158 52.0476 10.1919 50.4146 10.1919C48.7815 10.1919 47.4576 11.5158 47.4576 13.1488C47.4576 14.7819 48.7815 16.1058 50.4146 16.1058Z" stroke="black" stroke-width="4"/>
</svg>
