<svg width="64" height="64" viewBox="0 0 64 64" fill="none" xmlns="http://www.w3.org/2000/svg">
<path d="M15.5485 21.7305H3.01116V61.7112H15.5485V21.7305Z" stroke="black" stroke-width="4"/>
<path d="M49.4628 20.8637C49.0006 20.806 48.5095 20.7771 48.0184 20.7482C40.9986 20.4593 37.041 24.6192 35.6544 26.4102C35.2789 26.9013 35.1055 27.1902 35.1055 27.1902V21.8459H23.1171V61.8267H35.1055H35.6544C35.6544 57.7535 35.6544 53.7092 35.6544 49.636C35.6544 47.4406 35.6544 45.2451 35.6544 43.0496C35.6544 40.3342 35.4522 37.4454 36.8099 34.961C37.9654 32.8811 40.0453 31.8411 42.3853 31.8411C49.3183 31.8411 49.4628 38.1098 49.4628 38.6875C49.4628 38.7164 49.4628 38.7453 49.4628 38.7453V62H62.0001V35.9143C62.0001 26.988 57.4647 21.7304 49.4628 20.8637Z" stroke="black" stroke-width="4"/>
<path d="M9.27972 16.5595C13.3002 16.5595 16.5595 13.3002 16.5595 9.27974C16.5595 5.25925 13.3002 2 9.27972 2C5.25923 2 2 5.25925 2 9.27974C2 13.3002 5.25923 16.5595 9.27972 16.5595Z" stroke="black" stroke-width="4"/>
</svg>
